<?xml version="1.0" encoding="utf-8"?>
<!-- Generator: Adobe Illustrator 15.0.2, SVG Export Plug-In . SVG Version: 6.00 Build 0)  -->
<!DOCTYPE svg PUBLIC "-//W3C//DTD SVG 1.1//EN" "http://www.w3.org/Graphics/SVG/1.1/DTD/svg11.dtd">
<svg version="1.1" id="Layer_1" xmlns="http://www.w3.org/2000/svg" xmlns:xlink="http://www.w3.org/1999/xlink" x="0px" y="0px"
	 width="512px" height="512px" viewBox="0 0 512 512" enable-background="new 0 0 512 512" xml:space="preserve">
<path d="M68.147,375.465c-37.598,0-68.146,30.667-68.146,68.038c0,37.577,30.55,67.901,68.146,67.901
	c37.733,0,68.247-30.324,68.247-67.901C136.393,406.132,105.882,375.465,68.147,375.465z M0.078,173.965v98.129
	c63.892,0,123.979,24.986,169.229,70.256c45.192,45.159,70.141,105.519,70.141,169.65h98.561
	C338.008,325.59,186.368,173.965,0.078,173.965z M0.194,0v98.178c227.891,0,413.378,185.668,413.378,413.822H512
	C512,229.765,282.373,0,0.194,0z"/>
</svg>
