<?xml version="1.0" encoding="utf-8"?>
<!-- Generator: Adobe Illustrator 15.0.2, SVG Export Plug-In . SVG Version: 6.00 Build 0)  -->
<!DOCTYPE svg PUBLIC "-//W3C//DTD SVG 1.1//EN" "http://www.w3.org/Graphics/SVG/1.1/DTD/svg11.dtd">
<svg version="1.1" id="Layer_1" xmlns="http://www.w3.org/2000/svg" xmlns:xlink="http://www.w3.org/1999/xlink" x="0px" y="0px"
	 width="512px" height="512px" viewBox="0 0 512 512" enable-background="new 0 0 512 512" xml:space="preserve">
<path d="M432,0H48C21.6,0,0,21.6,0,48v416c0,26.4,21.6,48,48,48h384c26.4,0,48-21.6,48-48V48C480,21.6,458.4,0,432,0z M416,448H64
	V64h352V448z M128,224h224v32H128V224z M128,288h224v32H128V288z M128,352h224v32H128V352z M128,160h224v32H128V160z"/>
</svg>
