<?xml version="1.0" encoding="utf-8"?>
<!-- Generator: Adobe Illustrator 15.0.2, SVG Export Plug-In . SVG Version: 6.00 Build 0)  -->
<!DOCTYPE svg PUBLIC "-//W3C//DTD SVG 1.1//EN" "http://www.w3.org/Graphics/SVG/1.1/DTD/svg11.dtd">
<svg version="1.1" id="Layer_1" xmlns="http://www.w3.org/2000/svg" xmlns:xlink="http://www.w3.org/1999/xlink" x="0px" y="0px"
	 width="512px" height="512px" viewBox="0 0 512 512" enable-background="new 0 0 512 512" xml:space="preserve">
<path d="M425.671,0H84.343C37.406,0-1,38.405-1,85.345v341.312C-1,473.625,37.406,512,84.343,512h341.328
	C472.609,512,511,473.625,511,426.655V85.345C511,38.405,472.609,0,425.671,0z M418.026,170.917
	c0.164,3.671,0.245,7.364,0.245,11.074c0,113.106-84.608,243.534-239.33,243.534c-47.502,0-91.717-14.174-128.943-38.459
	c6.58,0.793,13.276,1.197,20.065,1.197c39.411,0,75.679-13.686,104.467-36.642c-36.808-0.69-67.872-25.438-78.577-59.44
	c5.137,1,10.406,1.536,15.826,1.536c7.672,0,15.103-1.048,22.16-3.004c-38.48-7.866-67.475-42.458-67.475-83.928
	c0-0.361,0-0.719,0.008-1.076c11.34,6.41,24.312,10.26,38.1,10.705c-22.571-15.349-37.421-41.546-37.421-71.244
	c0-15.685,4.147-30.389,11.389-43.029c41.487,51.785,103.468,85.86,173.377,89.431c-1.435-6.266-2.179-12.798-2.179-19.507
	c0-47.269,37.664-85.59,84.115-85.59c24.195,0,46.06,10.393,61.401,27.029c19.16-3.838,37.162-10.96,53.416-20.771
	c-6.281,19.988-19.617,36.761-36.982,47.355c17.013-2.069,33.226-6.67,48.31-13.477C448.725,143.774,434.463,158.85,418.026,170.917
	z"/>
</svg>
