<?xml version="1.0" encoding="utf-8"?>
<!-- Generated by IcoMoon.io -->
<!DOCTYPE svg PUBLIC "-//W3C//DTD SVG 1.1//EN" "http://www.w3.org/Graphics/SVG/1.1/DTD/svg11.dtd">
<svg version="1.1" xmlns="http://www.w3.org/2000/svg" xmlns:xlink="http://www.w3.org/1999/xlink" width="28" height="28" viewBox="0 0 28 28">
<path d="M20 14q0-0.578-0.469-0.844l-8-5q-0.484-0.313-1.016-0.031-0.516 0.281-0.516 0.875v10q0 0.594 0.516 0.875 0.25 0.125 0.484 0.125 0.313 0 0.531-0.156l8-5q0.469-0.266 0.469-0.844zM28 14q0 1.5-0.016 2.344t-0.133 2.133-0.352 2.305q-0.25 1.141-1.078 1.922t-1.937 0.906q-3.469 0.391-10.484 0.391t-10.484-0.391q-1.109-0.125-1.945-0.906t-1.086-1.922q-0.219-1.016-0.336-2.305t-0.133-2.133-0.016-2.344 0.016-2.344 0.133-2.133 0.352-2.305q0.25-1.141 1.078-1.922t1.937-0.906q3.469-0.391 10.484-0.391t10.484 0.391q1.109 0.125 1.945 0.906t1.086 1.922q0.219 1.016 0.336 2.305t0.133 2.133 0.016 2.344z" fill="#000000"></path>
</svg>
